<svg width="16" height="16" viewBox="0 0 16 16" fill="none" xmlns="http://www.w3.org/2000/svg">
<path d="M7.99992 14.6666C11.6818 14.6666 14.6666 11.6818 14.6666 7.99992C14.6666 4.31802 11.6818 1.33325 7.99992 1.33325C4.31802 1.33325 1.33325 4.31802 1.33325 7.99992C1.33325 11.6818 4.31802 14.6666 7.99992 14.6666Z" fill="#546FFF"/>
<path d="M7.05321 10.3867C6.91988 10.3867 6.79321 10.3334 6.69988 10.2401L4.81321 8.3534C4.61988 8.16007 4.61988 7.84007 4.81321 7.64673C5.00655 7.4534 5.32655 7.4534 5.51988 7.64673L7.05321 9.18007L10.4799 5.7534C10.6732 5.56007 10.9932 5.56007 11.1865 5.7534C11.3799 5.94673 11.3799 6.26673 11.1865 6.46006L7.40655 10.2401C7.31321 10.3334 7.18655 10.3867 7.05321 10.3867Z" fill="white"/>
</svg>
