<svg width="32" height="32" viewBox="0 0 32 32" fill="none" xmlns="http://www.w3.org/2000/svg">
<g opacity="0.28">
<path d="M28.8934 19.0665L28.3601 25.7332C28.1601 27.7732 28.0001 29.3332 24.3868 29.3332H7.61343C4.0001 29.3332 3.8401 27.7732 3.6401 25.7332L3.10676 19.0665C3.0001 17.9598 3.34676 16.9332 3.97343 16.1465C3.98676 16.1332 3.98676 16.1332 4.0001 16.1198C4.73343 15.2265 5.8401 14.6665 7.0801 14.6665H24.9201C26.1601 14.6665 27.2534 15.2265 27.9734 16.0932C27.9868 16.1065 28.0001 16.1198 28.0001 16.1332C28.6534 16.9198 29.0134 17.9465 28.8934 19.0665Z" stroke="#546FFF" stroke-width="1.5" stroke-miterlimit="10"/>
<path d="M4.66675 15.2399V8.37321C4.66675 3.83988 5.80008 2.70654 10.3334 2.70654H12.0267C13.7201 2.70654 14.1067 3.21321 14.7467 4.06654L16.4401 6.33321C16.8667 6.89321 17.1201 7.23988 18.2534 7.23988H21.6534C26.1867 7.23988 27.3201 8.37321 27.3201 12.9065V15.2932" stroke="#546FFF" stroke-width="1.5" stroke-miterlimit="10" stroke-linecap="round" stroke-linejoin="round"/>
<path d="M12.5732 22.6665H19.4266" stroke="#546FFF" stroke-width="1.5" stroke-miterlimit="10" stroke-linecap="round" stroke-linejoin="round"/>
</g>
</svg>
