<svg width="16" height="16" viewBox="0 0 16 16" fill="none" xmlns="http://www.w3.org/2000/svg">
<path d="M6.10671 7.24659C6.04004 7.23992 5.96004 7.23992 5.88671 7.24659C4.30004 7.19325 3.04004 5.89325 3.04004 4.29325C3.04004 2.65992 4.36004 1.33325 6.00004 1.33325C7.63337 1.33325 8.96004 2.65992 8.96004 4.29325C8.95337 5.89325 7.69337 7.19325 6.10671 7.24659Z" stroke="#54577A" stroke-width="1.5" stroke-linecap="round" stroke-linejoin="round"/>
<path d="M10.9399 2.66675C12.2333 2.66675 13.2733 3.71341 13.2733 5.00008C13.2733 6.26008 12.2733 7.28675 11.0266 7.33341C10.9733 7.32675 10.9133 7.32675 10.8533 7.33341" stroke="#54577A" stroke-width="1.5" stroke-linecap="round" stroke-linejoin="round"/>
<path d="M2.77323 9.70675C1.1599 10.7867 1.1599 12.5467 2.77323 13.6201C4.60657 14.8467 7.61323 14.8467 9.44657 13.6201C11.0599 12.5401 11.0599 10.7801 9.44657 9.70675C7.6199 8.48675 4.61323 8.48675 2.77323 9.70675Z" stroke="#54577A" stroke-width="1.5" stroke-linecap="round" stroke-linejoin="round"/>
<path d="M12.2266 13.3333C12.7066 13.2333 13.1599 13.0399 13.5332 12.7533C14.5732 11.9733 14.5732 10.6866 13.5332 9.90659C13.1666 9.62659 12.7199 9.43992 12.2466 9.33325" stroke="#54577A" stroke-width="1.5" stroke-linecap="round" stroke-linejoin="round"/>
</svg>
