<svg width="20" height="20" viewBox="0 0 20 20" fill="none" xmlns="http://www.w3.org/2000/svg">
<path fill-rule="evenodd" clip-rule="evenodd" d="M2.91737 11.4893V11.3069C2.94415 10.767 3.11719 10.2438 3.41865 9.79142C3.92044 9.24797 4.26394 8.582 4.41312 7.8634C4.41312 7.308 4.41312 6.74467 4.46163 6.18927C4.71226 3.51543 7.35609 1.66675 9.96757 1.66675H10.0322C12.6437 1.66675 15.2876 3.51543 15.5463 6.18927C15.5948 6.74467 15.5463 7.308 15.5867 7.8634C15.7379 8.58367 16.081 9.2517 16.5812 9.79935C16.8849 10.2478 17.0582 10.769 17.0824 11.3069V11.4814C17.1005 12.2068 16.8507 12.9141 16.379 13.4729C15.7558 14.1263 14.9101 14.5328 14.002 14.6154C11.3392 14.9011 8.65255 14.9011 5.98971 14.6154C5.08264 14.5292 4.23815 14.1233 3.61269 13.4729C3.14835 12.9137 2.90189 12.2106 2.91737 11.4893Z" stroke="#8E92BC" stroke-width="1.5" stroke-linecap="round" stroke-linejoin="round"/>
<path d="M7.96246 17.3765C8.37853 17.8987 8.98951 18.2367 9.66021 18.3156C10.3309 18.3945 11.006 18.2079 11.5361 17.797C11.6991 17.6755 11.8458 17.5342 11.9727 17.3765" stroke="#8E92BC" stroke-width="1.5" stroke-linecap="round" stroke-linejoin="round"/>
<circle cx="15" cy="3" r="3" fill="#FF4D5E"/>
</svg>
